<?xml version="1.0" encoding="UTF-8"?>
<svg width="1024" height="1024" viewBox="0 0 1024 1024" xmlns="http://www.w3.org/2000/svg">
  <g transform="translate(512, 512) scale(8)">
    <path d="M0 0 L-41.568 -24 L-41.568 24 L0 48 Z" fill="#FFFFFF" fill-opacity="0.7" stroke="#FFFFFF" stroke-width="3" stroke-linejoin="round"/>
    <path d="M0 0 L41.568 -24 L41.568 24 L0 48 Z" fill="#FFFFFF" fill-opacity="0.95" stroke="#FFFFFF" stroke-width="3" stroke-linejoin="round"/>
    <path d="M0 -48 L-41.568 -24 L0 0 L41.568 -24 Z" fill="none" stroke="#FFFFFF" stroke-width="3" stroke-linejoin="round"/>
    <g transform="matrix(0.866, 0.5, -0.866, 0.5, 0, -24) scale(0.75)">
      <path fill-rule="evenodd" clip-rule="evenodd" d="M-16 -20 L16 -20 L16 20 L-16 20 Z M-8 -12 L-8 12 L8 12 L8 -12 Z" fill="#FFFFFF"/>
      <path d="M-8 -4 L8 -4 L8 12 L-8 12 Z" fill="#FFFFFF" fill-opacity="0.45"/>
    </g>
  </g>
</svg>
